<svg id="Layer_1" data-name="Layer 1" xmlns="http://www.w3.org/2000/svg" viewBox="0 0 214.87 201.32"><defs><style>.cls-1,.cls-2{fill:none;stroke-miterlimit:10;}.cls-1{stroke:#3487b1;stroke-width:3px;}.cls-2{stroke:#f05a35;stroke-width:2px;}</style></defs><title>icon2_BMGF</title><path class="cls-1" d="M121.09,89.46a18.11,18.11,0,0,0-35.89,0Z"/><circle class="cls-1" cx="103.15" cy="60.09" r="9.79"/><circle class="cls-1" cx="148.76" cy="118.2" r="9.79"/><path class="cls-1" d="M166.71,147.57a18.11,18.11,0,0,0-35.9,0Z"/><circle class="cls-1" cx="61.34" cy="118.21" r="9.79"/><path class="cls-1" d="M79.29,147.57a18.11,18.11,0,0,0-35.9,0Z"/><line class="cls-1" x1="103.43" y1="100.36" x2="103.43" y2="112.09"/><line class="cls-1" x1="112.76" y1="119.94" x2="103.43" y2="112.09"/><line class="cls-1" x1="93.53" y1="119.94" x2="103.43" y2="112.09"/><line class="cls-2" x1="119.18" y1="107.9" x2="133.82" y2="114.73"/><line class="cls-2" x1="127.98" y1="97.78" x2="138.43" y2="107.18"/><line class="cls-2" x1="141.44" y1="88.12" x2="143.35" y2="104.16"/></svg>