<svg id="Layer_1" data-name="Layer 1" xmlns="http://www.w3.org/2000/svg" viewBox="0 0 214.87 201.32"><defs><style>.cls-1,.cls-2,.cls-3,.cls-4,.cls-5{fill:none;stroke-miterlimit:10;}.cls-1,.cls-2,.cls-3,.cls-4{stroke:#f05a35;stroke-width:2px;}.cls-2{stroke-dasharray:4.05 4.05;}.cls-3{stroke-dasharray:5.1 5.1;}.cls-4{stroke-dasharray:3.99 3.99;}.cls-5{stroke:#3487b1;stroke-width:3px;}</style></defs><title>icon4_bmgf</title><line class="cls-1" x1="92.59" y1="124.32" x2="94.54" y2="122.77"/><line class="cls-2" x1="97.71" y1="120.25" x2="108.81" y2="111.46"/><line class="cls-1" x1="110.4" y1="110.2" x2="112.36" y2="108.65"/><line class="cls-1" x1="131.99" y1="101.95" x2="134.42" y2="102.55"/><line class="cls-3" x1="139.37" y1="103.77" x2="166.6" y2="110.51"/><line class="cls-1" x1="169.08" y1="111.12" x2="171.51" y2="111.72"/><line class="cls-1" x1="179.91" y1="102.9" x2="180.24" y2="100.42"/><line class="cls-4" x1="180.76" y1="96.46" x2="182.6" y2="82.61"/><line class="cls-1" x1="182.86" y1="80.63" x2="183.19" y2="78.15"/><circle class="cls-5" cx="180.12" cy="111.51" r="8.62"/><circle class="cls-5" cx="121.12" cy="102.21" r="10.88"/><circle class="cls-5" cx="182.89" cy="65.66" r="12.5"/><line class="cls-1" x1="79.2" y1="95.26" x2="79.59" y2="97.73"/><line class="cls-4" x1="80.21" y1="101.68" x2="82.38" y2="115.48"/><line class="cls-1" x1="82.69" y1="117.45" x2="83.08" y2="119.92"/><circle class="cls-5" cx="20.44" cy="97.37" r="10.88"/><circle class="cls-5" cx="83.08" cy="132.42" r="12.5"/><line class="cls-1" x1="31.32" y1="97.37" x2="33.73" y2="96.71"/><line class="cls-3" x1="38.65" y1="95.37" x2="65.71" y2="87.98"/><line class="cls-1" x1="68.17" y1="87.31" x2="70.58" y2="86.65"/><circle class="cls-5" cx="79.2" cy="86.65" r="8.62"/></svg>