<svg id="Layer_1" data-name="Layer 1" xmlns="http://www.w3.org/2000/svg" viewBox="0 0 214.87 201.32"><defs><style>.cls-1,.cls-2{fill:none;stroke-miterlimit:10;}.cls-1{stroke:#3487b1;stroke-width:3px;}.cls-2{stroke:#f05a35;}</style></defs><title>icon3_bmgf</title><circle class="cls-1" cx="108.46" cy="114.1" r="38.02"/><path class="cls-1" d="M76.46,93.19s-.31-13.66,0-17.74a54.53,54.53,0,0,1,1.84-9.21,31.88,31.88,0,0,1,4.51-8.37,32,32,0,0,1,21.93-12.6,32.05,32.05,0,0,1,34.85,24.4"/><circle class="cls-2" cx="97.91" cy="107.52" r="6.6"/><path class="cls-2" d="M116.11,110.28v-5.51H112a14.21,14.21,0,0,0-2.17-5.24l3-3-3.89-3.89-3,3a14.21,14.21,0,0,0-5.24-2.17V89.32H95.15v4.15a14.39,14.39,0,0,0-5.23,2.16l-2.71-2.71-3.89,3.9L86,99.52a14.11,14.11,0,0,0-2.18,5.25H79.7v5.51h4.15A14.13,14.13,0,0,0,85.69,115l-3,3,3.89,3.89,2.8-2.8a14.35,14.35,0,0,0,5.74,2.52v4.15h5.51v-4.15a14.11,14.11,0,0,0,5.25-2.18l2.87,2.88,3.9-3.9-2.88-2.87a14.39,14.39,0,0,0,2.16-5.23Z"/><circle class="cls-2" cx="126.18" cy="123.23" r="3.3"/><path class="cls-2" d="M135.28,124.6v-2.75H133.2a7.13,7.13,0,0,0-1.08-2.62l1.48-1.48-1.95-2-1.48,1.48a7.23,7.23,0,0,0-2.62-1.08v-2.07H124.8v2.07a7.13,7.13,0,0,0-2.62,1.08l-1.35-1.35-2,1.94,1.35,1.36a7.06,7.06,0,0,0-1.08,2.62h-2.08v2.75h2.08a6.92,6.92,0,0,0,.92,2.36l-1.49,1.49,2,2,1.4-1.41a7,7,0,0,0,2.87,1.26v2.08h2.75v-2.08a7.11,7.11,0,0,0,2.63-1.08l1.43,1.43,1.95-1.94-1.44-1.44a7.06,7.06,0,0,0,1.08-2.62Z"/></svg>